<?xml version="1.0" standalone="no"?>
<!DOCTYPE svg PUBLIC "-//W3C//DTD SVG 20010904//EN"
 "http://www.w3.org/TR/2001/REC-SVG-20010904/DTD/svg10.dtd">
<svg version="1.0" xmlns="http://www.w3.org/2000/svg"
 width="260.000000pt" height="260.000000pt" viewBox="0 0 260.000000 260.000000"
 preserveAspectRatio="xMidYMid meet">
<metadata>
Created by potrace 1.14, written by Peter Selinger 2001-2017
</metadata>
<g transform="translate(0.000000,260.000000) scale(0.100000,-0.100000)"
fill="#000000" stroke="none">
<path d="M0 1300 l0 -1300 1300 0 1300 0 0 179 0 179 -29 13 c-16 7 -27 17
-24 23 3 5 1 6 -5 2 -6 -4 -22 -1 -34 6 -13 7 -27 13 -33 13 -5 1 -9 7 -7 14
1 7 -2 10 -8 6 -5 -3 -10 -1 -10 5 0 6 -5 8 -10 5 -6 -3 -22 7 -38 24 -15 16
-34 31 -42 33 -8 2 -23 11 -34 20 -10 10 -23 15 -28 12 -5 -3 -7 0 -6 7 2 6
-10 16 -27 22 -16 5 -32 13 -35 16 -3 3 -25 13 -50 22 -25 9 -76 28 -114 43
-39 14 -72 24 -74 22 -2 -3 6 -18 19 -35 26 -36 16 -57 -11 -24 -19 24 -37 32
-24 11 4 -7 3 -8 -5 -4 -6 4 -9 12 -6 17 12 18 -14 8 -28 -11 -8 -11 -17 -17
-20 -13 -4 3 -7 0 -7 -7 0 -7 -3 -11 -6 -8 -3 4 0 16 6 28 7 14 8 20 1 16 -6
-4 -10 9 -9 36 0 62 -1 70 -11 64 -10 -7 -23 18 -28 57 -2 15 1 27 6 27 7 0
11 41 11 114 0 98 -3 117 -20 137 -10 13 -20 22 -20 19 -8 -34 -11 -60 -19
-150 -6 -73 -15 -119 -31 -153 -23 -50 -75 -101 -91 -91 -11 7 -2 62 13 81 6
7 8 20 4 28 -4 10 1 15 14 15 22 0 24 7 11 30 -6 8 -7 18 -4 23 3 5 9 3 14 -4
7 -11 9 -10 9 4 0 9 4 17 8 17 14 0 7 38 -11 58 -9 10 -17 24 -17 31 0 7 -6
11 -14 8 -10 -4 -12 0 -8 16 2 12 9 27 13 33 5 6 6 14 2 17 -11 11 -23 8 -23
-6 0 -8 -20 -32 -45 -55 -25 -22 -45 -36 -45 -30 0 7 -7 3 -15 -8 -8 -10 -15
-14 -15 -7 0 7 -10 10 -25 7 -24 -4 -25 -3 -24 50 1 29 -2 60 -5 67 -4 8 0 5
8 -5 16 -19 16 -19 16 7 0 16 -11 36 -27 52 -33 30 -47 32 -38 5 5 -17 2 -19
-23 -16 -16 1 -37 -3 -47 -10 -14 -10 -22 -11 -32 -3 -10 9 -13 8 -13 -5 0 -9
3 -15 8 -15 36 6 62 -3 62 -21 0 -17 -7 -20 -47 -20 -27 0 -55 -4 -62 -9 -9
-6 -22 -6 -34 1 -33 17 -65 19 -74 4 -7 -12 -16 -13 -48 -5 -22 6 -62 10 -88
9 -58 -1 -55 15 4 25 24 4 43 14 47 23 10 29 30 44 38 30 4 -6 2 -14 -4 -16
-18 -6 -4 -22 18 -22 10 0 21 8 23 18 4 16 5 16 6 0 1 -19 31 -26 31 -7 0 6 8
9 18 7 18 -4 52 31 52 52 0 7 8 19 18 26 15 12 12 13 -24 14 -25 0 -47 -6 -54
-15 -14 -17 -82 -11 -112 10 -10 6 -31 10 -48 7 -25 -4 -28 -7 -20 -22 14 -26
13 -32 -7 -29 -10 1 -39 -8 -65 -20 -55 -25 -62 -41 -54 -128 6 -75 -1 -89
-38 -69 -15 7 -23 17 -17 20 15 9 2 36 -18 37 -10 0 -11 2 -3 6 17 7 15 40 -3
47 -8 3 -15 12 -15 21 0 8 -4 15 -10 15 -19 0 -39 46 -45 105 -4 33 -9 63 -11
66 -1 3 3 16 10 30 7 13 11 29 9 35 -5 14 79 42 127 42 19 1 61 15 94 31 32
17 61 29 63 27 2 -2 5 -12 6 -23 1 -16 4 -18 24 -9 25 12 43 87 25 109 -5 6
-13 31 -17 54 -8 50 -26 64 -114 88 -51 15 -73 16 -119 8 -31 -6 -61 -8 -66
-5 -12 7 -2 233 12 258 7 13 30 26 59 34 26 8 59 20 72 29 14 9 51 16 90 17
36 2 81 6 99 9 17 3 32 2 32 -2 0 -4 57 -8 128 -8 115 0 249 -18 304 -40 31
-12 60 -73 61 -125 1 -28 6 -50 12 -50 5 0 3 -6 -6 -13 -23 -17 -28 -40 -12
-55 7 -8 10 -18 7 -24 -3 -5 8 -35 24 -66 17 -31 36 -79 43 -107 6 -27 16 -58
21 -67 10 -21 28 -24 28 -5 0 8 24 24 53 37 28 13 53 25 55 26 10 6 27 179 22
229 -3 33 -1 72 4 87 6 17 6 42 -1 72 -7 33 -7 46 1 49 7 3 6 9 -3 21 -8 9
-21 14 -29 11 -21 -8 -35 4 -22 20 8 9 7 17 -4 28 -14 13 -14 16 0 21 8 3 12
11 8 17 -4 8 -3 9 4 5 7 -4 12 -16 12 -27 0 -10 4 -19 10 -19 5 0 7 -8 3 -17
-5 -14 -3 -15 6 -7 10 9 8 20 -8 52 -20 38 -21 58 -21 282 l0 240 271 0 272 0
-7 -327 c-3 -181 -11 -508 -18 -728 -6 -220 -11 -503 -12 -630 l-1 -230 93 -3
92 -3 0 991 0 990 -1300 0 -1300 0 0 -1300z m1447 1021 c10 -16 9 -20 -3 -25
-26 -10 -31 -7 -31 19 0 30 17 33 34 6z m-147 -6 c0 -8 -4 -15 -10 -15 -5 0
-7 7 -4 15 4 8 8 15 10 15 2 0 4 -7 4 -15z m300 -45 c0 -5 -4 -10 -9 -10 -6 0
-13 5 -16 10 -3 6 1 10 9 10 9 0 16 -4 16 -10z m-160 -4 c0 -3 -4 -8 -10 -11
-5 -3 -10 -1 -10 4 0 6 5 11 10 11 6 0 10 -2 10 -4z m47 -38 c-3 -8 -6 -5 -6
6 -1 11 2 17 5 13 3 -3 4 -12 1 -19z m47 7 c-4 -8 -8 -15 -10 -15 -2 0 -4 7
-4 15 0 8 4 15 10 15 5 0 7 -7 4 -15z m141 -5 c3 -5 2 -10 -4 -10 -5 0 -13 5
-16 10 -3 6 -2 10 4 10 5 0 13 -4 16 -10z m25 -30 c0 -5 -5 -10 -11 -10 -5 0
-7 5 -4 10 3 6 8 10 11 10 2 0 4 -4 4 -10z m118 -55 c-3 -3 -9 2 -12 12 -6 14
-5 15 5 6 7 -7 10 -15 7 -18z m19 -29 c-3 -8 1 -13 11 -12 12 1 16 -6 15 -24
-1 -14 1 -19 3 -12 8 17 21 15 28 -4 8 -20 -24 -63 -46 -64 -26 0 -31 17 -13
44 9 13 12 26 6 28 -15 5 -25 58 -11 58 7 0 10 -6 7 -14z m-57 0 c0 -2 -7 -7
-16 -10 -8 -3 -12 -2 -9 4 6 10 25 14 25 6z m28 -52 c-4 -25 -34 -30 -42 -7
-5 11 -1 22 10 30 21 15 37 3 32 -23z m82 -154 c0 -5 -5 -10 -11 -10 -5 0 -7
5 -4 10 3 6 8 10 11 10 2 0 4 -4 4 -10z m-870 -385 l25 -13 -25 -10 c-40 -15
-104 -22 -118 -13 -16 10 -6 38 16 44 34 9 78 6 102 -8z m-60 -95 c0 -5 -7
-10 -16 -10 -8 0 -12 5 -9 10 3 6 10 10 16 10 5 0 9 -4 9 -10z m35 -40 c-3 -5
-12 -10 -18 -10 -7 0 -6 4 3 10 19 12 23 12 15 0z m-269 -48 c-12 -11 -18 7
-10 30 l8 23 4 -23 c2 -13 1 -26 -2 -30z m-16 -50 c1 -15 2 -15 15 2 14 18 15
16 16 -30 0 -27 4 -91 7 -142 5 -60 3 -91 -3 -89 -5 2 -11 26 -11 53 -2 60
-14 144 -24 164 -14 30 -21 72 -10 65 5 -3 10 -14 10 -23z m701 -288 c16 -14
20 -14 47 0 37 19 50 8 59 -51 3 -21 11 -41 17 -45 8 -5 7 -8 -1 -8 -7 0 -13
-10 -13 -22 0 -17 3 -19 9 -9 5 8 11 9 15 3 3 -6 -4 -18 -16 -27 -15 -12 -19
-19 -10 -22 6 -3 12 -9 12 -14 0 -4 -7 -6 -15 -3 -8 4 -23 3 -32 -1 -10 -4
-40 -8 -66 -8 -35 0 -46 -4 -43 -14 3 -7 1 -13 -4 -13 -5 0 -7 -7 -3 -16 10
-26 -32 -61 -67 -56 -17 2 -30 9 -30 15 0 6 -10 1 -23 -11 -23 -22 -23 -22
-44 -2 -14 12 -19 27 -16 40 4 14 1 20 -12 20 -13 0 -15 3 -7 13 6 6 10 17 9
22 -1 6 21 14 48 19 28 6 52 12 55 15 3 3 23 16 45 27 60 33 58 47 -7 37 -29
-4 -88 -8 -130 -7 -59 1 -78 -2 -83 -14 -3 -9 0 -12 8 -9 7 3 21 -1 32 -9 10
-8 27 -14 37 -14 27 0 22 -19 -7 -26 -14 -3 -22 -10 -19 -15 9 -16 -50 13 -68
33 -9 10 -24 18 -34 18 -10 0 -28 10 -40 21 -18 17 -21 26 -13 40 13 26 29 24
62 -6 24 -23 32 -24 28 -3 0 5 2 7 7 7 4 -1 18 -1 31 0 17 1 22 5 17 17 -4 9
-2 22 3 28 6 8 1 12 -17 13 -23 3 -36 5 -72 13 -3 0 3 7 12 14 12 9 43 12 100
9 46 -2 110 1 143 6 33 5 64 9 69 10 5 0 17 -6 27 -15z m274 -102 c-8 -8 -25
10 -19 20 4 6 9 5 15 -3 4 -7 6 -15 4 -17z m-695 -32 c0 -5 -2 -10 -4 -10 -3
0 -8 5 -11 10 -3 6 -1 10 4 10 6 0 11 -4 11 -10z m-20 -40 c0 -5 -4 -10 -10
-10 -5 0 -10 5 -10 10 0 6 5 10 10 10 6 0 10 -4 10 -10z m550 -60 c0 -5 -4
-10 -10 -10 -5 0 -10 5 -10 10 0 6 5 10 10 10 6 0 10 -4 10 -10z m-47 -17 c-7
-3 -15 -4 -19 -3 -4 1 -10 -4 -14 -10 -5 -8 -9 -5 -12 7 -4 16 -1 18 26 14 17
-2 25 -6 19 -8z m-657 -54 c3 -6 1 -15 -6 -19 -16 -10 -150 -23 -157 -16 -3 3
5 14 18 25 27 23 132 30 145 10z m1094 -131 c0 -10 2 -10 9 0 6 10 10 7 13
-12 4 -21 3 -24 -8 -15 -8 6 -14 8 -14 4 0 -4 -7 -2 -15 5 -8 7 -12 16 -9 21
8 13 24 11 24 -3z m-62 -353 c29 -4 51 -9 48 -12 -3 -3 -40 0 -83 7 -71 11
-78 11 -88 -5 -5 -10 -18 -27 -29 -39 l-18 -21 14 25 c8 14 20 35 26 47 10 18
16 20 44 13 18 -5 57 -12 86 -15z m-47 -28 c-7 -7 -14 -8 -21 -1 -6 6 -2 10
12 11 16 2 18 -1 9 -10z m69 -12 c-12 -15 -30 -12 -30 6 0 5 10 9 21 9 18 0
19 -2 9 -15z"/>
<path d="M1340 746 c0 -9 5 -16 10 -16 6 0 10 4 10 9 0 6 -4 13 -10 16 -5 3
-10 -1 -10 -9z"/>
<path d="M1345 1612 c-47 -29 -58 -47 -45 -71 6 -12 17 -21 26 -21 10 0 13 -7
8 -26 -5 -20 -2 -26 15 -31 17 -4 19 -8 10 -19 -9 -11 -8 -14 4 -14 8 0 20 -6
26 -14 27 -33 81 -48 142 -41 64 8 73 19 14 17 -46 -2 -45 14 2 23 28 5 38 3
45 -9 5 -9 16 -16 24 -16 8 0 13 4 10 9 -4 5 4 7 16 4 13 -3 20 -2 16 2 -4 4
0 14 10 21 16 12 16 13 -3 20 -11 4 -27 13 -37 21 -9 8 -56 21 -105 30 -48 8
-90 17 -92 19 -14 13 26 28 76 28 61 1 141 -31 136 -53 -2 -6 6 -11 17 -11 11
0 20 2 20 5 0 20 -34 76 -65 108 l-37 37 -102 0 c-80 0 -107 -4 -131 -18z
m100 -162 c3 -5 -1 -10 -9 -10 -9 0 -16 5 -16 10 0 6 4 10 9 10 6 0 13 -4 16
-10z m94 -11 c-22 -14 -33 -10 -19 6 7 8 17 12 22 9 6 -4 5 -10 -3 -15z"/>
<path d="M1857 1413 c-13 -12 -7 -23 12 -23 14 0 24 -13 37 -46 20 -54 34 -43
34 29 l0 47 -38 0 c-21 0 -42 -3 -45 -7z"/>
<path d="M1825 1340 c-3 -5 2 -21 11 -35 16 -24 15 -38 -1 -77 -4 -11 -3 -18
4 -18 6 0 11 7 11 15 0 8 9 19 20 25 13 7 20 21 20 39 0 41 -48 79 -65 51z"/>
<path d="M1388 1240 c4 -34 7 -40 22 -35 10 3 21 1 25 -5 3 -6 11 -8 16 -4 6
3 2 12 -10 21 -12 8 -21 22 -21 32 0 15 -18 31 -34 31 -1 0 0 -18 2 -40z"/>
<path d="M1017 1229 c-59 -51 -97 -114 -97 -162 0 -51 15 -53 30 -4 15 53 73
143 114 179 20 18 26 28 16 28 -8 0 -36 -18 -63 -41z"/>
<path d="M1325 1111 c-10 -18 17 -23 33 -7 15 15 15 16 -5 16 -12 0 -24 -4
-28 -9z"/>
<path d="M1751 990 c14 -31 19 -36 19 -24 0 6 -7 19 -16 30 -14 18 -14 18 -3
-6z"/>
<path d="M1928 674 c-9 -14 7 -50 16 -36 4 7 3 19 -2 28 -5 9 -12 13 -14 8z"/>
</g>
</svg>
